Coordinates
version=1
nRows=21
nColumns=33
inDegrees=yes

Units are S.I. units (second, meters, Newtons, ...)
Angles are in degrees.

endheader
time	ground_thorax_rot_x	ground_thorax_rot_y	ground_thorax_rot_z	ground_thorax_tx	ground_thorax_ty	ground_thorax_tz	clav_prot_r	clav_elev_r	scapula_abduction_r	scapula_elevation_r	scapula_upward_rot_r	scapula_winging_r	shoulder_elv_r	plane_of_elev_r	axial_rot_r	elbow_flexion_r	pro_sup_r	wrist_flex_r	wrist_dev_r	clav_prot_l	clav_elev_l	scapula_abduction_l	scapula_elevation_l	scapula_upward_rot_l	scapula_winging_l	shoulder_elv_l	plane_of_elev_l	axial_rot_l	elbow_flexion_l	pro_sup_l	wrist_flex_l	wrist_dev_l
     11.58000000	     90.00000000	    -90.00000000	    -90.00000000	    -49.95049042	    776.59256156	    -35.82961951	    -45.00000000	     -0.01698584	    -36.99320353	     15.51395903	    -45.00000000	  -2629.92730221	  -1690.73959666	     33.71597966	    -27.42518030	   1080.54323222	    170.03280702	     12.33677743	     14.22601097	     12.19535516	     45.00000000	    -45.00000000	    -45.00000000	      6.24156797	  -4287.94153657	  -2570.90068168	    136.65811445	   -179.99999979	   1070.73655555	    438.66517452	      6.45863616	     -7.93814538
     11.59000000	     90.00000000	    -90.00000000	    -90.00000000	    -52.79333702	    777.92928540	    -36.07494418	    -45.00000000	     -0.24178383	    -36.62909556	     15.46102798	    -45.00000000	  -2629.99836388	  -1690.83267060	     33.91237949	    -27.21376481	   1080.32659780	    169.87271558	     12.28939437	     14.11779533	     11.90236165	     45.00000000	    -45.00000000	    -45.00000000	      6.30521270	  -4288.00457574	  -2570.79383903	    136.51130695	   -179.99999979	   1070.83069467	    439.47282517	      6.48226936	     -7.88189494
     11.60000000	     90.00000000	    -90.00000000	    -90.00000000	    -55.61300865	    779.34864397	    -36.31806717	    -45.00000000	     -0.67843076	    -36.39801257	     15.07168966	    -45.00000000	  -2629.98623373	  -1690.55384004	     33.76849072	    -26.87371335	   1080.58001711	    169.69227866	     12.38737903	     14.37281555	     11.64452954	     45.00000000	    -45.00000000	    -45.00000000	      6.41495625	  -4288.30254577	  -2570.77880177	    136.57788548	   -179.99999979	   1070.97146749	    440.14875773	      6.60683188	     -7.98491178
     11.61000000	     90.00000000	    -90.00000000	    -90.00000000	    -58.40104538	    780.84769912	    -36.55989235	    -45.00000000	     -0.66300996	    -36.16050793	     15.01177702	    -45.00000000	  -2629.87417267	  -1690.44812580	     33.92023469	    -26.80284563	   1080.22968142	    169.47698057	     12.30953565	     14.21501064	     11.32429816	     45.00000000	    -45.00000000	    -45.00000000	      6.44341521	  -4288.30484595	  -2570.61565528	    136.32668934	   -179.99999979	   1070.95973504	    440.88781130	      6.63984352	     -7.85996032
     11.62000000	     90.00000000	    -90.00000000	    -90.00000000	    -61.15437331	    782.42219251	    -36.79942288	    -45.00000000	     -0.73208203	    -36.02203852	     14.91620894	    -45.00000000	  -2629.63457380	  -1690.37410098	     33.92104316	    -26.47857084	   1080.14949895	    169.14902243	     12.46060433	     14.35140454	     11.00917027	     45.00000000	    -45.00000000	    -45.00000000	      6.51612049	  -4288.50676356	  -2570.57288448	    136.28859004	   -179.99999979	   1070.92843301	    441.66306616	      6.80572906	     -7.90699119
     11.63000000	     90.00000000	    -90.00000000	    -90.00000000	    -63.87430355	    784.06959101	    -37.03626481	    -45.00000000	     -1.39282459	    -35.53943563	     14.52527915	    -45.00000000	  -2629.86504515	  -1690.21862641	     33.93880851	    -26.25055643	   1080.15174199	    168.87073127	     12.44368782	     14.50095366	     10.78262196	     45.00000000	    -45.00000000	    -45.00000000	      6.60234245	  -4288.79121750	  -2570.57430168	    136.32598498	   -179.99999979	   1071.03873421	    442.29648295	      6.88087060	     -8.00608668
     11.64000000	     90.00000000	    -90.00000000	    -90.00000000	    -66.55464746	    785.78264292	    -37.26726129	    -45.00000000	     -1.59762686	    -35.39564458	     14.21896517	    -45.00000000	  -2629.77557195	  -1689.97181457	     33.87258982	    -25.96272442	   1080.23213459	    168.58967576	     12.44649494	     14.50850656	     10.50719507	     45.00000000	    -45.00000000	    -45.00000000	      6.64417565	  -4288.91375593	  -2570.46795259	    136.23082487	   -179.99999979	   1071.14786792	    442.84976745	      6.95636726	     -7.97331385
     11.65000000	     90.00000000	    -90.00000000	    -90.00000000	    -69.19754543	    787.55957574	    -37.49168018	    -45.00000000	     -1.69735792	    -35.16121053	     14.09278520	    -45.00000000	  -2629.68381549	  -1689.93256944	     33.95724227	    -25.79500137	   1080.05956862	    168.25398455	     12.47243996	     14.61765120	     10.21099377	     45.00000000	    -45.00000000	    -45.00000000	      6.70479001	  -4289.07622668	  -2570.44399410	    136.16876651	   -179.99999979	   1071.13370994	    443.39923234	      7.05282282	     -8.03440944
     11.66000000	     90.00000000	    -90.00000000	    -90.00000000	    -71.79915518	    789.39499008	    -37.70645768	    -45.00000000	     -2.26450439	    -34.84943682	     13.64931477	    -45.00000000	  -2629.81668207	  -1689.69213215	     33.89233866	    -25.46402571	   1080.20765684	    167.94435936	     12.47576340	     14.68506847	      9.98250841	     45.00000000	    -45.00000000	    -45.00000000	      6.73228738	  -4289.32870526	  -2570.36998050	    136.17323051	   -179.99999979	   1071.22971801	    443.85194163	      7.14773851	     -8.03280592
     11.67000000	     90.00000000	    -90.00000000	    -90.00000000	    -74.35515808	    791.28339109	    -37.91046601	    -45.00000000	     -2.15099941	    -34.69731795	     13.57638563	    -45.00000000	  -2629.56901198	  -1689.59010303	     33.95419474	    -25.34092429	   1079.95260633	    167.58186519	     12.50324871	     14.72803887	      9.68479420	     45.00000000	    -45.00000000	    -45.00000000	      6.76622839	  -4289.36780129	  -2570.28740456	    135.99798848	   -179.99999979	   1071.16841737	    444.29976916	      7.23940205	     -8.05561054
     11.68000000	     90.00000000	    -90.00000000	    -90.00000000	    -76.86388726	    793.22309053	    -38.10264706	    -45.00000000	     -2.18906496	    -34.55449341	     13.48799753	    -45.00000000	  -2629.39094881	  -1689.53083534	     34.00238602	    -25.09949357	   1079.84866719	    167.14216592	     12.54927924	     14.76196760	      9.39749013	     45.00000000	    -45.00000000	    -45.00000000	      6.78386959	  -4289.48199348	  -2570.29890654	    135.90965901	   -179.99999979	   1071.10853935	    444.74893312	      7.36625032	     -8.05116149
     11.69000000	     90.00000000	    -90.00000000	    -90.00000000	    -79.31574795	    795.20689405	    -38.28331227	    -45.00000000	     -3.27963069	    -34.06006409	     12.86725433	    -45.00000000	  -2629.87191474	  -1689.35869185	     33.98861929	    -24.80105193	   1080.17291224	    166.80863638	     12.52571050	     14.94375706	      9.23363583	     45.00000000	    -45.00000000	    -45.00000000	      6.71463782	  -4289.90519198	  -2570.16003670	    136.14000280	   -179.99999979	   1071.34185961	    445.01687742	      7.42650312	     -8.16302569
     11.70000000	     90.00000000	    -90.00000000	    -90.00000000	    -81.71193610	    797.23630898	    -38.45216512	    -45.00000000	     -2.80749231	    -34.09411385	     12.82128305	    -45.00000000	  -2629.36063784	  -1689.07066666	     33.97593101	    -24.73515109	   1079.79228100	    166.43767386	     12.57601130	     14.82753032	      8.94901617	     45.00000000	    -45.00000000	    -45.00000000	      6.79766274	  -4289.68536768	  -2570.18194052	    135.67209818	   -179.99999979	   1071.21579096	    445.30421989	      7.50977203	     -8.03695174
     11.71000000	     90.00000000	    -90.00000000	    -90.00000000	    -84.04292113	    799.30526178	    -38.60887083	    -45.00000000	     -2.47914936	    -33.94480565	     12.75364368	    -45.00000000	  -2629.14020139	  -1689.08353260	     33.96051544	    -24.42317460	   1079.77053626	    165.89736801	     12.56377318	     14.89120677	      8.63033834	     45.00000000	    -45.00000000	    -45.00000000	      6.85190628	  -4289.87296345	  -2570.15104168	    135.61023661	   -179.99999979	   1071.12971612	    445.58781026	      7.62166379	     -8.06466588
     11.72000000	     90.00000000	    -90.00000000	    -90.00000000	    -86.31093050	    801.41609528	    -38.75491950	    -45.00000000	     -2.64960910	    -33.70659516	     12.51714752	    -45.00000000	  -2629.07818251	  -1688.98477791	     33.93073050	    -24.22219064	   1079.74095664	    165.33999258	     12.55294028	     14.94118789	      8.39968802	     45.00000000	    -45.00000000	    -45.00000000	      6.83417858	  -4290.00101374	  -2570.11964872	    135.54515986	   -179.99999979	   1071.14848051	    445.80241293	      7.69918215	     -8.09989831
     11.73000000	     90.00000000	    -90.00000000	    -90.00000000	    -88.51378870	    803.56733467	    -38.89188204	    -45.00000000	     -2.90237767	    -33.47826443	     12.28709916	    -45.00000000	  -2629.04504626	  -1688.86848249	     33.95140733	    -24.03073965	   1079.70519109	    164.78836261	     12.56221292	     14.99081621	      8.18258254	     45.00000000	    -45.00000000	    -45.00000000	      6.81815850	  -4290.14518415	  -2570.10791538	    135.48990202	   -179.99999979	   1071.12882930	    445.93297831	      7.78732658	     -8.12898800
     11.74000000	     90.00000000	    -90.00000000	    -90.00000000	    -90.65022961	    805.75689451	    -39.02138915	    -45.00000000	     -3.44647812	    -33.20624701	     12.06653291	    -45.00000000	  -2629.09878154	  -1688.73712976	     34.06424430	    -23.91080380	   1079.59840082	    164.25184026	     12.63568339	     15.05967412	      8.00596708	     45.00000000	    -45.00000000	    -45.00000000	      6.84062974	  -4290.31480065	  -2570.09731662	    135.47071942	   -179.99999979	   1071.10030205	    445.97359255	      7.88663202	     -8.17113288
     11.75000000	     90.00000000	    -90.00000000	    -90.00000000	    -92.72384446	    807.98606824	    -39.14544405	    -45.00000000	     -3.37874821	    -33.04191035	     11.79263146	    -45.00000000	  -2629.00097733	  -1688.62482002	     33.99680597	    -23.66920904	   1079.67340183	    163.65488138	     12.60137432	     15.11659510	      7.76597368	     45.00000000	    -45.00000000	    -45.00000000	      6.76059519	  -4290.46719890	  -2570.07374999	    135.43012785	   -179.99999979	   1071.09615015	    445.94964952	      7.95042058	     -8.22030641
     11.76000000	     90.00000000	    -90.00000000	    -90.00000000	    -94.73076385	    810.24648558	    -39.26451172	    -45.00000000	     -3.55433981	    -32.81904513	     11.57827915	    -45.00000000	  -2628.93972496	  -1688.55910752	     33.99127055	    -23.50694422	   1079.61339481	    163.00110469	     12.61152998	     15.15366802	      7.56007939	     45.00000000	    -45.00000000	    -45.00000000	      6.71842144	  -4290.62523288	  -2570.05606354	    135.38764988	   -179.99999979	   1071.05341138	    445.84542997	      8.02026898	     -8.24474472
     11.77000000	     90.00000000	    -90.00000000	    -90.00000000	    -96.67143583	    812.53309062	    -39.37898597	    -45.00000000	     -3.77234076	    -32.61832061	     11.35364042	    -45.00000000	  -2628.90666589	  -1688.46644930	     34.00757224	    -23.34020091	   1079.58231792	    162.31664927	     12.61500298	     15.19250563	      7.36437144	     45.00000000	    -45.00000000	    -45.00000000	      6.68275903	  -4290.79736691	  -2570.04558741	    135.35340251	   -179.99999979	   1071.00920347	    445.64905817	      8.08846852	     -8.26300284
     11.78000000	     90.00000000	    -90.00000000	    -90.00000000	    -98.54495287	    814.83912480	    -39.48845382	    -45.00000000	     -3.98364639	    -32.42766088	     11.11026208	    -45.00000000	  -2628.87788186	  -1688.38036428	     34.01917835	    -23.17593240	   1079.54846124	    161.60814860	     12.61867040	     15.22952150	      7.17334139	     45.00000000	    -45.00000000	    -45.00000000	      6.63948158	  -4290.97232668	  -2570.04046479	    135.32956867	   -179.99999979	   1070.95759154	    445.34558199	      8.15256177	     -8.27367750
